#!OML:ASF H:\Dans Jumps\Project 1\Capture day 1\Session 1\subject.ASF
:FULLY-SPECIFIED
:DEGREES
363
root 0.0328065 16.9228 -8.02038 7.77116 0.812245 -1.00946
lowerback 10.0858 0.508838 -0.882203
upperback 7.02135 0.60213 1.52894
thorax 1.62318 0.238685 2.02691
lowerneck -14.5426 -0.561885 -1.11482
upperneck 31.5517 -0.85248 1.12289
head 12.9631 -0.35175 0.501774
rclavicle 2.98177e-016 -4.17448e-015
rhumerus -38.5782 -32.198 -55.9447
rradius 17.148
rwrist 51.6972
rhand -18.7497 -23.9214
rfingers 7.12502
rthumb 7.54677 -53.7668
lclavicle 2.98177e-016 -4.17448e-015
lhumerus -37.5528 24.2184 60.9695
lradius 7.61817
lwrist -14.2135
lhand -23.9232 0.932903
lfingers 7.12502
lthumb 2.55153 30.8974
rfemur -31.3439 -4.69517 19.6089
rtibia 44.9751
rfoot -20.0367 -1.43519
rtoes 5.524
lfemur -30.9248 5.8305 -17.7167
ltibia 41.6904
lfoot -17.2907 4.48763
ltoes -4.24952
364
root 0.0403233 16.9544 -8.01476 8.11 0.766294 -0.885931
lowerback 9.99377 0.448363 -0.933517
upperback 7.00535 0.51865 1.5019
thorax 1.65992 0.195523 2.03526
lowerneck -14.5517 -0.512894 -1.09933
upperneck 31.4567 -0.772123 1.07851
head 12.9237 -0.321207 0.493459
rclavicle 1.09332e-015 1.35174e-014
rhumerus -39.8132 -32.2719 -54.6664
rradius 17.067
rwrist 52.1519
rhand -18.6414 -23.9874
rfingers 7.12502
rthumb 7.65126 -53.829
lclavicle 1.09332e-015 1.35174e-014
lhumerus -38.7579 23.6378 60.2932
lradius 7.60288
lwrist -15.1318
lhand -23.4365 1.41511
lfingers 7.12502
lthumb 3.02161 31.3734
rfemur -31.4743 -4.8299 19.4812
rtibia 44.4987
rfoot -19.7807 -1.22019
rtoes 5.7865
lfemur -30.9063 5.90536 -17.9144
ltibia 41.0128
lfoot -17.1592 4.3002
ltoes -4.18036
365
root 0.0482481 16.9831 -8.00904 8.41562 0.700104 -0.73612
lowerback 9.91672 0.403058 -1.00923
upperback 7.00144 0.453362 1.47066
thorax 1.70041 0.160583 2.05129
lowerneck -14.5669 -0.471824 -1.09775
upperneck 31.3572 -0.700391 1.03836
head 12.8842 -0.295359 0.487905
rclavicle -5.96354e-016 -3.18055e-015
rhumerus -41.0021 -32.2458 -53.4745
rradius 17.0229
rwrist 52.3871
rhand -18.4928 -24.0684
rfingers 7.12502
rthumb 7.7947 -53.9047
lclavicle -5.96354e-016 -3.18055e-015
lhumerus -39.9118 23.045 59.6838
lradius 7.65177
lwrist -16.066
lhand -22.8241 1.85013
lfingers 7.12502
lthumb 3.61299 31.7993
rfemur -31.6043 -4.95976 19.3204
rtibia 44.082
rfoot -19.5382 -0.993624
rtoes 6.05482
lfemur -30.8679 5.97919 -18.143
ltibia 40.3687
lfoot -17.0169 4.15245
ltoes -4.0936
366
root 0.0562947 17.0093 -8.0028 8.67722 0.614737 -0.577657
lowerback 9.86646 0.372228 -1.09606
upperback 7.00338 0.406323 1.44032
thorax 1.73172 0.134368 2.0728
lowerneck -14.5607 -0.441087 -1.12346
upperneck 31.2585 -0.643525 1.02171
head 12.8409 -0.276068 0.493984
rclavicle 2.5842e-015 3.97569e-015
rhumerus -42.1825 -32.2016 -52.2996
rradius 16.9827
rwrist 52.5025
rhand -18.3224 -24.1467
rfingers 7.12502
rthumb 7.95918 -53.9769
lclavicle 2.5842e-015 3.97569e-015
lhumerus -41.0269 22.4355 59.1332
lradius 7.75629
lwrist -16.9358
lhand -22.1967 2.11697
lfingers 7.12502
lthumb 4.21882 32.0549
rfemur -31.7094 -5.07012 19.1421
rtibia 43.7104
rfoot -19.3134 -0.76433
rtoes 6.34443
lfemur -30.7991 6.05426 -18.3811
ltibia 39.7629
lfoot -16.864 4.04562
ltoes -3.98346
367
root 0.0641006 17.0329 -7.9965 8.90035 0.510559 -0.434185
lowerback 9.83812 0.355734 -1.17571
upperback 7.01525 0.378592 1.41881
thorax 1.76073 0.117764 2.09776
lowerneck -14.5618 -0.418338 -1.16047
upperneck 31.1793 -0.594007 1.00235
head 12.8076 -0.261514 0.499971
rclavicle 2.88238e-015 4.57205e-015
rhumerus -43.3316 -32.1245 -51.1699
rradius 16.9592
rwrist 52.4804
rhand -18.1293 -24.2308
rfingers 7.12502
rthumb 8.14557 -54.0538
lclavicle 2.88238e-015 4.57205e-015
lhumerus -42.0648 21.8311 58.6571
lradius 7.892
lwrist -17.6811
lhand -21.6264 2.19444
lfingers 7.12502
lthumb 4.76951 32.1208
rfemur -31.7877 -5.13543 18.9708
rtibia 43.3695
rfoot -19.1041 -0.552043
rtoes 6.66211
lfemur -30.7118 6.12979 -18.5995
ltibia 39.2013
lfoot -16.7024 3.98129
ltoes -3.87191
368
root 0.0714385 17.0542 -7.99027 9.08915 0.397512 -0.319778
lowerback 9.8306 0.350426 -1.23147
upperback 7.03188 0.367202 1.40864
thorax 1.78272 0.109899 2.11963
lowerneck -14.5682 -0.401986 -1.20185
upperneck 31.1307 -0.550846 0.977929
head 12.7883 -0.250788 0.503976
rclavicle -1.98785e-015 0
rhumerus -44.4693 -32.0489 -50.0556
rradius 16.9424
rwrist 52.3749
rhand -17.9327 -24.2986
rfingers 7.12502
rthumb 8.33529 -54.1141
lclavicle -1.98785e-015 0
lhumerus -43.0163 21.2339 58.2537
lradius 8.03119
lwrist -18.2537
lhand -21.2079 2.02684
lfingers 7.12502
lthumb 5.17359 31.9437
rfemur -31.8324 -5.15072 18.8216
rtibia 43.0445
rfoot -18.9091 -0.367002
rtoes 7.00598
lfemur -30.6112 6.19786 -18.7797
ltibia 38.6865
lfoot -16.5401 3.95262
ltoes -3.74723
369
root 0.078233 17.0735 -7.98435 9.24935 0.283724 -0.237726
lowerback 9.84153 0.351703 -1.25826
upperback 7.05365 0.366419 1.41028
thorax 1.79959 0.108067 2.13655
lowerneck -14.6015 -0.38713 -1.23158
upperneck 31.1246 -0.505972 0.931814
head 12.7922 -0.240674 0.498068
rclavicle -1.78906e-015 -7.95139e-016
rhumerus -45.5922 -32.0017 -48.9458
rradius 16.9294
rwrist 52.2367
rhand -17.7333 -24.3439
rfingers 7.12502
rthumb 8.52767 -54.1517
lclavicle -1.78906e-015 -7.95139e-016
lhumerus -43.8668 20.6583 57.9227
lradius 8.15411
lwrist -18.6485
lhand -21.0264 1.60513
lfingers 7.12502
lthumb 5.34883 31.5176
rfemur -31.8437 -5.11388 18.6995
rtibia 42.7249
rfoot -18.7274 -0.226384
rtoes 7.32963
lfemur -30.5045 6.24486 -18.9148
ltibia 38.2188
lfoot -16.3772 3.95735
ltoes -3.61847
370
root 0.0845282 17.0913 -7.97908 9.39417 0.178299 -0.189486
lowerback 9.86034 0.355393 -1.25012
upperback 7.07846 0.371252 1.42352
thorax 1.81513 0.109991 2.14537
lowerneck -14.6606 -0.372828 -1.24693
upperneck 31.1533 -0.457588 0.860674
head 12.816 -0.23056 0.480717
rclavicle -1.98785e-015 -2.38542e-015
rhumerus -46.6931 -31.9925 -47.8393
rradius 16.9199
rwrist 52.1012
rhand -17.5074 -24.37
rfingers 7.12502
rthumb 8.74572 -54.1688
lclavicle -1.98785e-015 -2.38542e-015
lhumerus -44.6086 20.1128 57.6628
lradius 8.25985
lwrist -18.8784
lhand -20.6146 1.43006
lfingers 7.12502
lthumb 5.74644 31.3321
rfemur -31.8311 -5.03159 18.6084
rtibia 42.4035
rfoot -18.5585 -0.131681
rtoes 7.63095
lfemur -30.4061 6.26214 -19.0034
ltibia 37.7946
lfoot -16.2151 3.9836
ltoes -3.46085
371
root 0.0904219 17.1078 -7.9745 9.53355 0.0869151 -0.162239
lowerback 9.88193 0.358133 -1.21545
upperback 7.10035 0.376765 1.4426
thorax 1.8261 0.113136 2.14524
lowerneck -14.7306 -0.357376 -1.25047
upperneck 31.2026 -0.405738 0.774303
head 12.8507 -0.219559 0.456043
rclavicle -3.57812e-015 -4.37326e-015
rhumerus -47.7779 -32.0259 -46.7316
rradius 16.9103
rwrist 52.0283
rhand -17.2605 -24.382
rfingers 7.12502
rthumb 8.98396 -54.1707
lclavicle -3.57812e-015 -4.37326e-015
lhumerus -45.2453 19.5979 57.4646
lradius 8.33987
lwrist -18.9777
lhand -19.9735 1.52848
lfingers 7.12502
lthumb 6.36539 31.4128
rfemur -31.8071 -4.91693 18.5384
rtibia 42.0783
rfoot -18.3976 -0.0928469
rtoes 7.84756
lfemur -30.3252 6.24295 -19.0609
ltibia 37.4094
lfoot -16.0534 4.02565
ltoes -3.27845
